<mxfile host="app.diagrams.net" agent="Mozilla/5.0 (X11; Linux x86_64; rv:109.0) Gecko/20100101 Firefox/115.0" version="24.7.15">
  <diagram name="Page-1" id="hzORNXav-0Q0C-apcLpn">
    <mxGraphModel dx="1434" dy="759" grid="1" gridSize="10" guides="1" tooltips="1" connect="1" arrows="1" fold="1" page="1" pageScale="1" pageWidth="850" pageHeight="1100" math="0" shadow="0">
      <root>
        <mxCell id="0" />
        <mxCell id="1" parent="0" />
        <mxCell id="I_QVvolvyh0wgv4aYKM6-1" value="" style="rounded=0;whiteSpace=wrap;html=1;" vertex="1" parent="1">
          <mxGeometry x="90" y="150" width="120" height="160" as="geometry" />
        </mxCell>
        <mxCell id="I_QVvolvyh0wgv4aYKM6-2" value="Patient" style="shape=umlActor;verticalLabelPosition=bottom;verticalAlign=top;html=1;outlineConnect=0;" vertex="1" parent="1">
          <mxGeometry x="135" y="202" width="30" height="60" as="geometry" />
        </mxCell>
        <mxCell id="I_QVvolvyh0wgv4aYKM6-3" value="&lt;b&gt;Primary Actors&lt;/b&gt;" style="rounded=0;whiteSpace=wrap;html=1;" vertex="1" parent="1">
          <mxGeometry x="90" y="150" width="90" height="30" as="geometry" />
        </mxCell>
        <mxCell id="I_QVvolvyh0wgv4aYKM6-6" value="" style="rounded=0;whiteSpace=wrap;html=1;" vertex="1" parent="1">
          <mxGeometry x="330" y="60" width="380" height="430" as="geometry" />
        </mxCell>
        <mxCell id="I_QVvolvyh0wgv4aYKM6-7" value="&lt;b&gt; Mister Ed&lt;/b&gt;" style="rounded=0;whiteSpace=wrap;html=1;" vertex="1" parent="1">
          <mxGeometry x="330" y="60" width="120" height="40" as="geometry" />
        </mxCell>
        <mxCell id="I_QVvolvyh0wgv4aYKM6-15" value="Check ED Load" style="ellipse;whiteSpace=wrap;html=1;" vertex="1" parent="1">
          <mxGeometry x="407.51" y="268" width="121.25" height="50" as="geometry" />
        </mxCell>
        <mxCell id="I_QVvolvyh0wgv4aYKM6-17" value="Check Admission Times" style="ellipse;whiteSpace=wrap;html=1;" vertex="1" parent="1">
          <mxGeometry x="410.63" y="202" width="120" height="48" as="geometry" />
        </mxCell>
        <mxCell id="I_QVvolvyh0wgv4aYKM6-19" value="Hospitals database" style="ellipse;whiteSpace=wrap;html=1;" vertex="1" parent="1">
          <mxGeometry x="570" y="230" width="120" height="48" as="geometry" />
        </mxCell>
        <mxCell id="I_QVvolvyh0wgv4aYKM6-20" value="Search Hospitals" style="ellipse;whiteSpace=wrap;html=1;" vertex="1" parent="1">
          <mxGeometry x="405.63" y="132" width="120" height="48" as="geometry" />
        </mxCell>
        <mxCell id="I_QVvolvyh0wgv4aYKM6-21" value="" style="endArrow=classic;html=1;rounded=0;" edge="1" parent="1" target="I_QVvolvyh0wgv4aYKM6-17">
          <mxGeometry width="50" height="50" relative="1" as="geometry">
            <mxPoint x="170" y="220" as="sourcePoint" />
            <mxPoint x="450" y="280" as="targetPoint" />
          </mxGeometry>
        </mxCell>
        <mxCell id="I_QVvolvyh0wgv4aYKM6-22" value="" style="endArrow=classic;html=1;rounded=0;entryX=0;entryY=1;entryDx=0;entryDy=0;" edge="1" parent="1" target="I_QVvolvyh0wgv4aYKM6-15">
          <mxGeometry width="50" height="50" relative="1" as="geometry">
            <mxPoint x="170" y="220" as="sourcePoint" />
            <mxPoint x="450" y="280" as="targetPoint" />
          </mxGeometry>
        </mxCell>
        <mxCell id="I_QVvolvyh0wgv4aYKM6-23" value="Call staff/Live chat" style="ellipse;whiteSpace=wrap;html=1;" vertex="1" parent="1">
          <mxGeometry x="405.63" y="340" width="120" height="48" as="geometry" />
        </mxCell>
        <mxCell id="I_QVvolvyh0wgv4aYKM6-26" value="" style="endArrow=classic;html=1;rounded=0;entryX=0;entryY=1;entryDx=0;entryDy=0;exitX=1;exitY=0.3333333333333333;exitDx=0;exitDy=0;exitPerimeter=0;" edge="1" parent="1" source="I_QVvolvyh0wgv4aYKM6-2" target="I_QVvolvyh0wgv4aYKM6-20">
          <mxGeometry width="50" height="50" relative="1" as="geometry">
            <mxPoint x="170" y="230" as="sourcePoint" />
            <mxPoint x="421" y="237" as="targetPoint" />
          </mxGeometry>
        </mxCell>
        <mxCell id="I_QVvolvyh0wgv4aYKM6-28" value="" style="endArrow=classic;html=1;rounded=0;entryX=0;entryY=1;entryDx=0;entryDy=0;" edge="1" parent="1">
          <mxGeometry width="50" height="50" relative="1" as="geometry">
            <mxPoint x="170" y="220" as="sourcePoint" />
            <mxPoint x="435" y="351" as="targetPoint" />
          </mxGeometry>
        </mxCell>
      </root>
    </mxGraphModel>
  </diagram>
</mxfile>
